<svg width="400" height="185" viewBox="0 0 400 185" fill="none" xmlns="http://www.w3.org/2000/svg">
<path d="M214.772 105.238C205.672 105.238 197.058 105.373 188.444 105.238C185.609 105.238 184.745 106.211 184.367 108.83C182.821 119.124 179.31 129.024 174.025 137.992C165.635 152.461 153.544 164.435 138.993 172.683C124.443 180.931 107.959 185.156 91.2354 184.923C69.016 184.693 47.6297 176.433 31.0237 161.668C14.4177 146.904 3.71299 126.63 0.885274 104.59C-0.57432 94.5287 -0.22683 84.2872 1.91138 74.3476C4.66284 60.4697 10.6793 47.4464 19.463 36.3552C28.7484 24.1719 40.9755 14.5463 54.9982 8.38066C62.5786 5.46638 70.3923 3.19905 78.3553 1.60302C89.8218 -0.772557 101.679 -0.504735 113.026 2.38612C127.039 5.37639 140.148 11.6304 151.289 20.6398C162.928 29.8539 172.188 41.7249 178.291 55.2569C180.992 61.4944 182.72 68.2181 185.096 75.3467H215.366C226.167 25.5002 269.128 -2.96037 313.547 0.522942C361.719 4.24928 398.307 40.7836 399.954 90.1711C400.601 110.597 394.363 130.648 382.242 147.102C370.122 163.557 352.823 175.46 333.123 180.899C320.299 184.817 306.748 185.74 293.511 183.6C280.271 181.525 267.602 176.735 256.301 169.531C245.252 162.37 235.839 152.957 228.678 141.908C221.462 130.825 216.719 118.319 214.772 105.238ZM20.9211 92.3313C19.895 132.106 53.54 164.401 92.7746 164.455C102.218 164.483 111.574 162.651 120.309 159.064C129.044 155.476 136.987 150.204 143.684 143.546C150.381 136.889 155.702 128.978 159.342 120.265C162.982 111.551 164.87 102.206 164.898 92.7633C164.926 83.3203 163.095 73.9641 159.507 65.229C155.92 56.4939 150.647 48.551 143.99 41.8537C137.332 35.1564 129.421 29.836 120.708 26.1961C111.995 22.5562 102.65 20.6682 93.2066 20.6398C53.6751 20.4778 20.111 52.8807 20.9211 92.3313ZM379.027 92.8173C380 53.2047 346.76 20.9368 307.525 20.6398C298.082 20.5848 288.721 22.3904 279.975 25.9533C271.23 29.5162 263.272 34.7667 256.556 41.405C249.84 48.0434 244.497 55.9396 240.833 64.6428C237.168 73.346 235.254 82.6858 235.199 92.1288C235.144 101.572 236.95 110.933 240.512 119.678C244.075 128.424 249.326 136.382 255.964 143.098C262.603 149.814 270.499 155.157 279.202 158.821C287.905 162.485 297.245 164.4 306.688 164.455C345.814 164.671 379.703 132.592 379.027 92.8173Z" fill="url(#paint0_linear_930_3145)"/>
<path d="M49.7321 88.7667C50.4716 87.0629 51.4341 85.4648 52.5943 84.0143C58.8876 77.2811 66.2279 71.6094 74.3313 67.2188C78.8693 64.8098 83.8788 63.4215 89.0095 63.151C94.1401 62.8805 99.2678 63.7342 104.034 65.6526C114.346 69.3166 123.613 75.4328 131.036 83.4743C132.641 85.4601 133.769 87.7882 134.331 90.2788C134.461 91.2747 134.333 92.2872 133.961 93.22C133.589 94.1529 132.985 94.9749 132.206 95.6082C131.426 96.2415 130.498 96.6649 129.508 96.838C128.519 97.0112 127.502 96.9284 126.554 96.5975C124.173 95.8525 122.006 94.5468 120.235 92.7901C113.215 86.2015 106.032 79.964 96.6893 76.9127C93.2817 75.9147 89.6807 75.772 86.2048 76.4973C82.729 77.2226 79.4855 78.7936 76.7615 81.0711C71.5613 85.0953 66.6192 89.4422 61.9642 94.0862C61.0199 95.0484 59.7938 95.6849 58.4635 95.9034C57.1332 96.1219 55.7679 95.911 54.5655 95.3013C53.2373 94.7613 52.0835 93.8657 51.2309 92.713C50.3782 91.5603 49.8596 90.1948 49.7321 88.7667Z" fill="url(#paint1_linear_930_3145)"/>
<path d="M342.898 96.8404C341.035 96.1043 339.303 95.0741 337.767 93.7891C332.304 88.1329 326.067 83.2784 319.244 79.3698C315.324 76.9508 310.753 75.8029 306.156 76.0832C301.559 76.3636 297.161 78.0586 293.564 80.9359C288.314 85.0812 283.277 89.4882 278.47 94.1401C277.805 94.742 277.027 95.2064 276.181 95.5066C275.336 95.8067 274.439 95.9367 273.543 95.889C272.647 95.8413 271.77 95.6169 270.961 95.2287C270.152 94.8405 269.428 94.2962 268.83 93.6271C267.685 92.41 267.048 90.802 267.048 89.1311C267.048 87.4602 267.685 85.8522 268.83 84.6352C276.526 76.7775 284.627 69.4869 295.184 65.4365C302.638 62.3756 310.951 62.1356 318.569 64.7614C330.034 68.362 340.303 75.0179 348.271 84.0142C349.838 86.0272 350.894 88.3897 351.35 90.8998C351.701 93.8701 348.082 96.7864 342.898 96.8404Z" fill="url(#paint2_linear_930_3145)"/>
<defs>
<linearGradient id="paint0_linear_930_3145" x1="200" y1="0" x2="200" y2="184.932" gradientUnits="userSpaceOnUse">
<stop stop-color="#5CADF4"/>
<stop offset="1" stop-color="#2C95F1"/>
</linearGradient>
<linearGradient id="paint1_linear_930_3145" x1="92.0561" y1="63.1021" x2="92.0561" y2="96.9262" gradientUnits="userSpaceOnUse">
<stop stop-color="#5CADF4"/>
<stop offset="1" stop-color="#2C95F1"/>
</linearGradient>
<linearGradient id="paint2_linear_930_3145" x1="309.21" y1="62.9526" x2="309.21" y2="96.8404" gradientUnits="userSpaceOnUse">
<stop stop-color="#5CADF4"/>
<stop offset="1" stop-color="#2C95F1"/>
</linearGradient>
</defs>
</svg>
